<?xml version="1.0" encoding="UTF-8"?>
<svg width="48" height="48" viewBox="0 0 48 48" fill="none" xmlns="http://www.w3.org/2000/svg">
  <g filter="url(#filter0_d)">
    <circle cx="24" cy="22" r="18" fill="white"/>
    <path d="M24 12C23.175 12 22.5 12.675 22.5 13.5C22.5 14.325 23.175 15 24 15C24.825 15 25.5 14.325 25.5 13.5C25.5 12.675 24.825 12 24 12Z" fill="#FF6B6B"/>
    <path d="M24 18C23.45 18 23 18.45 23 19V31C23 31.55 23.45 32 24 32C24.55 32 25 31.55 25 31V19C25 18.45 24.55 18 24 18Z" fill="#FF6B6B"/>
  </g>
  <defs>
    <filter id="filter0_d" x="2" y="2" width="44" height="44" filterUnits="userSpaceOnUse" color-interpolation-filters="sRGB">
      <feFlood flood-opacity="0" result="BackgroundImageFix"/>
      <feColorMatrix in="SourceAlpha" type="matrix" values="0 0 0 0 0 0 0 0 0 0 0 0 0 0 0 0 0 0 127 0"/>
      <feOffset dy="2"/>
      <feGaussianBlur stdDeviation="2"/>
      <feColorMatrix type="matrix" values="0 0 0 0 0 0 0 0 0 0 0 0 0 0 0 0 0 0 0.25 0"/>
      <feBlend mode="normal" in2="BackgroundImageFix" result="effect1_dropShadow"/>
      <feBlend mode="normal" in="SourceGraphic" in2="effect1_dropShadow" result="shape"/>
    </filter>
  </defs>
</svg> 